<svg width="24" height="24" viewBox="0 0 24 24" fill="none" xmlns="http://www.w3.org/2000/svg">
<path d="M18.125 19.6563C18.3571 19.6563 18.5796 19.5641 18.7437 19.4C18.9078 19.2359 19 19.0133 19 18.7813V17.691C19.0035 15.2358 15.5228 13.3125 12 13.3125C8.47725 13.3125 5 15.2358 5 17.691V18.7813C5 19.0133 5.09219 19.2359 5.25628 19.4C5.42038 19.5641 5.64294 19.6563 5.875 19.6563H18.125ZM15.1535 7.49725C15.1535 7.91137 15.0719 8.32144 14.9135 8.70404C14.755 9.08664 14.5227 9.43428 14.2299 9.72711C13.937 10.0199 13.5894 10.2522 13.2068 10.4107C12.8242 10.5692 12.4141 10.6508 12 10.6508C11.5859 10.6508 11.1758 10.5692 10.7932 10.4107C10.4106 10.2522 10.063 10.0199 9.77014 9.72711C9.47731 9.43428 9.24502 9.08664 9.08655 8.70404C8.92807 8.32144 8.8465 7.91137 8.8465 7.49725C8.8465 6.66089 9.17874 5.85878 9.77014 5.26739C10.3615 4.67599 11.1636 4.34375 12 4.34375C12.8364 4.34375 13.6385 4.67599 14.2299 5.26739C14.8213 5.85878 15.1535 6.66089 15.1535 7.49725Z" stroke="#151316" stroke-width="1.5" stroke-linecap="round" stroke-linejoin="round"/>
</svg>
