<svg width="24" height="24" viewBox="0 0 24 24" fill="none" xmlns="http://www.w3.org/2000/svg">
<path d="M12.25 20.5C16.8065 20.5 20.5 16.8065 20.5 12.25C20.5 7.69353 16.8065 4 12.25 4C7.69353 4 4 7.69353 4 12.25C4 13.7523 4.40178 15.1622 5.10385 16.375L4.4125 20.0875L8.125 19.3962C9.3787 20.1212 10.8017 20.502 12.25 20.5Z" stroke="#151316" stroke-width="1.5" stroke-linecap="round" stroke-linejoin="round"/>
<path d="M16.3751 12.6626C16.4845 12.6626 16.5895 12.6191 16.6668 12.5418C16.7442 12.4644 16.7876 12.3595 16.7876 12.2501C16.7876 12.1407 16.7442 12.0358 16.6668 11.9584C16.5895 11.881 16.4845 11.8376 16.3751 11.8376C16.2657 11.8376 16.1608 11.881 16.0835 11.9584C16.0061 12.0358 15.9626 12.1407 15.9626 12.2501C15.9626 12.3595 16.0061 12.4644 16.0835 12.5418C16.1608 12.6191 16.2657 12.6626 16.3751 12.6626ZM12.2501 12.6626C12.3595 12.6626 12.4645 12.6191 12.5418 12.5418C12.6192 12.4644 12.6626 12.3595 12.6626 12.2501C12.6626 12.1407 12.6192 12.0358 12.5418 11.9584C12.4645 11.881 12.3595 11.8376 12.2501 11.8376C12.1407 11.8376 12.0358 11.881 11.9585 11.9584C11.8811 12.0358 11.8376 12.1407 11.8376 12.2501C11.8376 12.3595 11.8811 12.4644 11.9585 12.5418C12.0358 12.6191 12.1407 12.6626 12.2501 12.6626ZM8.12515 12.6626C8.23455 12.6626 8.33947 12.6191 8.41683 12.5418C8.49419 12.4644 8.53765 12.3595 8.53765 12.2501C8.53765 12.1407 8.49419 12.0358 8.41683 11.9584C8.33947 11.881 8.23455 11.8376 8.12515 11.8376C8.01574 11.8376 7.91082 11.881 7.83346 11.9584C7.75611 12.0358 7.71265 12.1407 7.71265 12.2501C7.71265 12.3595 7.75611 12.4644 7.83346 12.5418C7.91082 12.6191 8.01574 12.6626 8.12515 12.6626Z" fill="black" stroke="#151316" stroke-width="1.5" stroke-linecap="round" stroke-linejoin="round"/>
</svg>
