<svg width="24" height="24" viewBox="0 0 24 24" fill="none" xmlns="http://www.w3.org/2000/svg">
<path d="M20.71 18.65V11.028C20.7099 10.5728 20.6063 10.1235 20.4069 9.71431C20.2074 9.30508 19.9175 8.9466 19.559 8.66602L13.233 3.71502C12.8811 3.43946 12.447 3.28973 12 3.28973C11.553 3.28973 11.1189 3.43946 10.767 3.71502L4.44102 8.66502C4.08258 8.9458 3.79275 9.30449 3.5935 9.7139C3.39426 10.1233 3.29081 10.5727 3.29102 11.028V18.65C3.29102 19.81 4.23102 20.75 5.39102 20.75H9.36102V12.785H14.639V20.75H18.609C19.166 20.75 19.7001 20.5288 20.0939 20.1349C20.4878 19.7411 20.71 19.207 20.71 18.65Z" stroke="#151316" stroke-width="1.5" stroke-linecap="round" stroke-linejoin="round"/>
</svg>
