<svg width="24" height="24" viewBox="0 0 24 24" fill="none" xmlns="http://www.w3.org/2000/svg">
<path d="M20 2.91302V18C19.9997 18.6368 19.7967 19.2569 19.4206 19.7707C19.0444 20.2845 18.5145 20.6652 17.9076 20.8579C17.3007 21.0505 16.6482 21.045 16.0446 20.8423C15.441 20.6395 14.9176 20.2499 14.5501 19.7299C14.1826 19.2099 13.9901 18.5864 14.0004 17.9497C14.0107 17.313 14.2234 16.6962 14.6076 16.1884C14.9918 15.6806 15.5276 15.3082 16.1375 15.1251C16.7473 14.942 17.3997 14.9578 18 15.17V8.08803L8 8.92002V19C7.99967 19.6368 7.79673 20.2569 7.42057 20.7707C7.0444 21.2845 6.51451 21.6652 5.90759 21.8579C5.30067 22.0505 4.64819 22.045 4.04459 21.8423C3.44098 21.6395 2.91755 21.2499 2.55006 20.7299C2.18256 20.2099 1.99005 19.5864 2.0004 18.9497C2.01074 18.313 2.2234 17.6962 2.60759 17.1884C2.99179 16.6806 3.52759 16.3082 4.13747 16.1251C4.74735 15.942 5.39966 15.9578 6 16.17V4.08002L20 2.91302Z" fill="#3B3F42"/>
</svg>
