<svg width="24" height="24" viewBox="0 0 24 24" fill="none" xmlns="http://www.w3.org/2000/svg">
<path d="M4 10.2614C4 8.38136 4 7.44092 4.38756 6.72269C4.738 6.08208 5.28177 5.56847 5.94133 5.25514C6.70222 4.88892 7.69778 4.88892 9.68889 4.88892H14.3111C16.3022 4.88892 17.2978 4.88892 18.0587 5.25514C18.728 5.57692 19.2711 6.09069 19.6124 6.7218C20 7.4418 20 8.38225 20 10.2622V14.6285C20 16.5085 20 17.4489 19.6124 18.1671C19.262 18.8078 18.7182 19.3214 18.0587 19.6347C17.2978 20 16.3022 20 14.3111 20H9.68889C7.69778 20 6.70222 20 5.94133 19.6338C5.28191 19.3207 4.73814 18.8074 4.38756 18.1671C4 17.4471 4 16.5067 4 14.6267V10.2614Z" stroke="#151316" stroke-width="1.5" stroke-linecap="round" stroke-linejoin="round"/>
<path d="M15.9999 5.77778V4M7.99995 5.77778V4M4.22217 8.44444H19.7777M10.4515 13.9929L11.3706 15.0427C11.4551 15.1396 11.6071 15.1316 11.6817 15.0284L13.5484 12.4444" stroke="#151316" stroke-width="1.5" stroke-linecap="round" stroke-linejoin="round"/>
</svg>
