<svg width="24" height="24" viewBox="0 0 24 24" fill="none" xmlns="http://www.w3.org/2000/svg">
<path d="M10.2222 8.38886H20M4 14.6111H13.7778M4 8.38886C4 8.86036 4.1873 9.31254 4.5207 9.64594C4.8541 9.97934 5.30628 10.1666 5.77778 10.1666C6.24927 10.1666 6.70146 9.97934 7.03486 9.64594C7.36825 9.31254 7.55556 8.86036 7.55556 8.38886C7.55556 7.91737 7.36825 7.46518 7.03486 7.13178C6.70146 6.79838 6.24927 6.61108 5.77778 6.61108C5.30628 6.61108 4.8541 6.79838 4.5207 7.13178C4.1873 7.46518 4 7.91737 4 8.38886ZM16.4444 14.6111C16.4444 15.0826 16.6317 15.5348 16.9651 15.8682C17.2985 16.2016 17.7507 16.3889 18.2222 16.3889C18.6937 16.3889 19.1459 16.2016 19.4793 15.8682C19.8127 15.5348 20 15.0826 20 14.6111C20 14.1396 19.8127 13.6874 19.4793 13.354C19.1459 13.0206 18.6937 12.8333 18.2222 12.8333C17.7507 12.8333 17.2985 13.0206 16.9651 13.354C16.6317 13.6874 16.4444 14.1396 16.4444 14.6111Z" stroke="#151316" stroke-width="1.5" stroke-linecap="round" stroke-linejoin="round"/>
</svg>
