<svg width="65" height="20" viewBox="0 0 65 20" fill="none" xmlns="http://www.w3.org/2000/svg">
<path d="M10.224 13.872C10.488 12.432 9.60004 11.544 7.96804 11.544H4.65604L3.86404 16.152H7.24804C8.88004 16.152 9.98404 15.336 10.224 13.872ZM11.064 6.88798C11.28 5.51998 10.512 4.70398 8.92804 4.70398H5.88004L5.11204 9.02398H8.18404C9.74404 9.02398 10.824 8.25598 11.064 6.88798ZM13.56 14.28C13.104 16.944 10.704 18.816 7.22404 18.816H4.10378e-05L2.97604 2.06398H9.88804C13.392 2.06398 15.024 3.88798 14.568 6.38398C14.232 8.42398 12.768 9.69598 11.064 10.224C12.84 10.584 13.92 12.312 13.56 14.28ZM15.4219 18.816L17.7739 5.51998H21.1579L18.8059 18.816H15.4219ZM19.7659 3.93598C18.5659 3.93598 17.8459 3.07198 18.0379 1.96798C18.2299 0.863978 19.2619 -2.19345e-05 20.4619 -2.19345e-05C21.6379 -2.19345e-05 22.3579 0.863978 22.1659 1.96798C21.9739 3.07198 20.9419 3.93598 19.7659 3.93598ZM22.1016 18.816L25.2456 1.05598H28.6296L25.4856 18.816H22.1016ZM28.7813 18.816L31.1333 5.51998H34.5173L32.1653 18.816H28.7813ZM33.1253 3.93598C31.9253 3.93598 31.2053 3.07198 31.3973 1.96798C31.5893 0.863978 32.6213 -2.19345e-05 33.8213 -2.19345e-05C34.9973 -2.19345e-05 35.7173 0.863978 35.5253 1.96798C35.3333 3.07198 34.3013 3.93598 33.1253 3.93598ZM36.397 5.51998H39.997L41.557 15.72L46.717 5.51998H50.341L43.069 18.816H38.941L36.397 5.51998ZM57.4602 8.06398C55.8042 8.06398 54.3162 9.16798 53.7642 11.064H60.1002C60.3882 9.16798 59.1882 8.06398 57.4602 8.06398ZM62.5962 14.64C61.4682 17.088 58.9002 19.032 55.6362 19.032C51.7722 19.032 49.3962 16.344 50.1642 12.168C50.9082 7.96798 54.1002 5.30398 58.0362 5.30398C61.8762 5.30398 64.1322 7.91998 63.4362 11.856C63.3642 12.24 63.2682 12.672 63.1242 13.104H53.4042C53.1882 15.12 54.3402 16.248 56.0442 16.248C57.4842 16.248 58.4202 15.528 58.9722 14.64H62.5962Z" fill="#7E38FA"/>
</svg>
